<?xml version="1.0" encoding="utf-8"?>
<?xml-stylesheet type="text/xsl" href="rss1.xsl"?>
<rss version="2.0" xmlns:atom="http://www.w3.org/2005/Atom" xmlns:content="http://purl.org/rss/1.0/modules/content/" xmlns:dc="http://purl.org/dc/elements/1.1/" xmlns:media="http://search.yahoo.com/mrss/">
<channel>
 <title>Getty</title>
 <link>http://www.gettyimg.com/</link>
 <atom:link href="http://www.gettyimg.com/" rel="self" type="application/rss+xml" />

 
                <item>
                <title><![CDATA[【Apple Music】WEB-RiP - Miley Cyrus - Flowers [Apple HD Music Video]]]></title>
                <link><![CDATA[https://sharemania.us/threads/miley-cyrus-flowers-apple-hd-music-video.242656/]]></link>
                <description><![CDATA[<article>
<blockquote class="messageText SelectQuoteContainer ugc baseHtml">
<span style="font-size: 22px"><b>Miley Cyrus - Flowers [Apple HD Music Video]</b></span><br>
<br>
<img src="https://imgur.com/SClEYdn.jpg" class="bbCodeImage LbImage" alt="[​IMG]" data-url="https://imgur.com/SClEYdn.jpg" style=""><br>
<br>
<div class="bbCodeBlock bbCodeCode">
<div class="type">Code:</div>
<pre>General
Format                         : MPEG-4
Codec ID                       : M4V  (isom/M4V /mp42)
File size                      : 247 MiB
Duration                       : 3 min 21 s
Overall bit rate mode          : Variable
Overall bit rate               : 10.3 Mb/s
Movie name                     : Flowers
Performer                      : Miley Cyrus
Genre                          : Pop
ContentType                    : Music Video
Recorded date                  : UTC 2023-01-15 08:00:00
Encoded date                   : UTC 2024-03-12 19:44:24
Tagged date                    : UTC 2024-03-12 19:44:24
Copyright                      : ℗ (C) 2023 Smiley Miley, Inc. under exclusive license to Columbia Records, a Division of Sony Music Entertainment
Cover                          : Yes
Rating                         : None
GenreID                        : 1614
AppleStoreCountry              : Canada
AlbumTitleID                   : 137057909
AppleStoreCatalogID            : 1663984595

Video
ID                             : 2
Format                         : AVC
Format/Info                    : Advanced Video Codec
Format profile                 : High@L4
Format settings                : CABAC / 5 Ref Frames
Format settings, CABAC         : Yes
Format settings, Reference fra : 5 frames
Codec ID                       : avc1
Codec ID/Info                  : Advanced Video Coding
Duration                       : 3 min 21 s
Source duration                : 3 min 21 s
Bit rate                       : 9 584 kb/s
Maximum bit rate               : 23.7 Mb/s
Width                          : 1 918 pixels
Height                         : 702 pixels
Display aspect ratio           : 2.732
Frame rate mode                : Constant
Frame rate                     : 24.000 FPS
Color space                    : YUV
Chroma subsampling             : 4:2:0
Bit depth                      : 8 bits
Scan type                      : Progressive
Bits/(Pixel*Frame)             : 0.297
Stream size                    : 230 MiB (93%)
Source stream size             : 240 MiB (97%)
Title                          : Core Media Video
Language                       : English
Encoded date                   : UTC 2024-02-16 00:03:48
Tagged date                    : UTC 2024-03-12 19:44:29
Color range                    : Limited
Color primaries                : BT.709
Transfer characteristics       : BT.709
Matrix coefficients            : BT.709
mdhd_Duration                  : 201583
Codec configuration box        : avcC

Audio
ID                             : 1
Format                         : AAC LC
Format/Info                    : Advanced Audio Codec Low Complexity
Codec ID                       : mp4a-40-2
Duration                       : 3 min 21 s
Duration_LastFrame             : -14 ms
Bit rate mode                  : Variable
Bit rate                       : 256 kb/s
Maximum bit rate               : 343 kb/s
Channel(s)                     : 2 channels
Channel layout                 : L R
Sampling rate                  : 48.0 kHz
Frame rate                     : 46.875 FPS (1024 SPF)
Compression mode               : Lossy
Stream size                    : 6.16 MiB (2%)
Title                          : Core Media Audio
Encoded date                   : UTC 2024-02-16 00:03:39
Tagged date                    : UTC 2024-03-12 19:44:29

Text
ID                             : 3
Format                         : EIA-608
Codec ID                       : c608
Duration                       : 3 min 16 s
Bit rate mode                  : Variable
Bit rate                       : 134 b/s
Maximum bit rate               : 896 b/s
Frame rate                     : 0.454 FPS
Stream size                    : 3.20 KiB (0%)
Title                          : Core Media Closed Caption
Language                       : English
Forced                         : No
Encoded date                   : UTC 2024-02-16 00:03:48
Tagged date                    : UTC 2024-03-12 19:44:29
</pre>
</div>
<div class="bbCodeBlock bbCodeVfcHH HiddenContent">
<div class="attribution type">Hidden Content:</div>
<blockquote>You must reply before you can see the hidden data contained here.</blockquote>
</div>
<div class="messageTextEndMarker">&nbsp;</div>
</blockquote>
</article>]]></description>
                <author><![CDATA[Mu$iC @$YLUM]]></author>
                </item>

                </channel></rss>